<?xml version="1.0" standalone="no"?>
<svg fill='green' xmlns:xlink="http://www.w3.org/1999/xlink" id="wave" style="transform:rotate(180deg); transition: 0.3s" viewBox="0 0 1440 280" version="1.1" xmlns="http://www.w3.org/2000/svg"><defs><linearGradient id="sw-gradient-0" x1="0" x2="0" y1="1" y2="0"><stop stop-color="rgba(243, 106, 62, 1)" offset="0%"/><stop stop-color="rgba(255, 179, 11, 1)" offset="100%"/></linearGradient></defs><path style="transform:translate(0, 0px); opacity:1" fill="url(#sw-gradient-0)" d="M0,252L60,228.7C120,205,240,159,360,130.7C480,103,600,93,720,107.3C840,121,960,159,1080,144.7C1200,131,1320,65,1440,46.7C1560,28,1680,56,1800,88.7C1920,121,2040,159,2160,163.3C2280,168,2400,140,2520,149.3C2640,159,2760,205,2880,210C3000,215,3120,177,3240,168C3360,159,3480,177,3600,158.7C3720,140,3840,84,3960,74.7C4080,65,4200,103,4320,140C4440,177,4560,215,4680,228.7C4800,243,4920,233,5040,214.7C5160,196,5280,168,5400,172.7C5520,177,5640,215,5760,210C5880,205,6000,159,6120,126C6240,93,6360,75,6480,93.3C6600,112,6720,168,6840,196C6960,224,7080,224,7200,200.7C7320,177,7440,131,7560,130.7C7680,131,7800,177,7920,168C8040,159,8160,93,8280,70C8400,47,8520,65,8580,74.7L8640,84L8640,280L8580,280C8520,280,8400,280,8280,280C8160,280,8040,280,7920,280C7800,280,7680,280,7560,280C7440,280,7320,280,7200,280C7080,280,6960,280,6840,280C6720,280,6600,280,6480,280C6360,280,6240,280,6120,280C6000,280,5880,280,5760,280C5640,280,5520,280,5400,280C5280,280,5160,280,5040,280C4920,280,4800,280,4680,280C4560,280,4440,280,4320,280C4200,280,4080,280,3960,280C3840,280,3720,280,3600,280C3480,280,3360,280,3240,280C3120,280,3000,280,2880,280C2760,280,2640,280,2520,280C2400,280,2280,280,2160,280C2040,280,1920,280,1800,280C1680,280,1560,280,1440,280C1320,280,1200,280,1080,280C960,280,840,280,720,280C600,280,480,280,360,280C240,280,120,280,60,280L0,280Z"/></svg>